M48
; DRILL file KiCad 10.0.1 date 2026-06-16T17:56:20
; FORMAT={-:-/ absolute / metric / decimal}
; #@! TF.CreationDate,2026-06-16T17:56:20+08:00
; #@! TF.GenerationSoftware,Kicad,Pcbnew,10.0.1
; #@! TF.FileFunction,Plated,1,2,PTH
FMAT,2
METRIC
; #@! TA.AperFunction,Plated,PTH,ComponentDrill
T1C0.700
; #@! TA.AperFunction,Plated,PTH,ComponentDrill
T2C0.800
; #@! TA.AperFunction,Plated,PTH,ComponentDrill
T3C1.000
%
G90
G05
T2
X82.35Y-51.6
X84.85Y-51.6
T3
X72.185Y-65.66
X72.185Y-68.2
X72.185Y-70.74
X72.2Y-42.76
X72.2Y-45.3
X72.2Y-47.84
X72.2Y-50.38
X72.2Y-52.92
X72.2Y-55.46
X72.2Y-79.66
X72.2Y-82.2
X72.2Y-84.74
X72.2Y-87.28
X76.0Y-40.62
X76.0Y-43.16
X76.0Y-45.7
X76.0Y-48.24
X76.0Y-50.78
X76.0Y-53.32
X76.0Y-55.86
X76.0Y-58.4
X76.0Y-60.94
X79.72Y-74.6
X79.8Y-59.72
X82.26Y-74.6
X84.8Y-74.6
X87.34Y-74.6
X87.4Y-59.72
X91.2Y-40.64
X91.2Y-43.18
X91.2Y-45.72
X91.2Y-48.26
X91.2Y-50.8
X91.2Y-53.34
X91.2Y-55.88
X91.2Y-58.42
X91.2Y-60.96
T1
G00X77.25Y-94.5
M15
G01X77.25Y-96.3
M16
G05
G00X88.95Y-94.5
M15
G01X88.95Y-96.3
M16
G05
M30
