%TF.GenerationSoftware,KiCad,Pcbnew,10.0.1*%
%TF.CreationDate,2026-06-16T17:56:22+08:00*%
%TF.ProjectId,susGadget,73757347-6164-4676-9574-2e6b69636164,rev?*%
%TF.SameCoordinates,Original*%
%TF.FileFunction,Copper,L2,Bot*%
%TF.FilePolarity,Positive*%
%FSLAX46Y46*%
G04 Gerber Fmt 4.6, Leading zero omitted, Abs format (unit mm)*
G04 Created by KiCad (PCBNEW 10.0.1) date 2026-06-16 17:56:22*
%MOMM*%
%LPD*%
G01*
G04 APERTURE LIST*
G04 Aperture macros list*
%AMRoundRect*
0 Rectangle with rounded corners*
0 $1 Rounding radius*
0 $2 $3 $4 $5 $6 $7 $8 $9 X,Y pos of 4 corners*
0 Add a 4 corners polygon primitive as box body*
4,1,4,$2,$3,$4,$5,$6,$7,$8,$9,$2,$3,0*
0 Add four circle primitives for the rounded corners*
1,1,$1+$1,$2,$3*
1,1,$1+$1,$4,$5*
1,1,$1+$1,$6,$7*
1,1,$1+$1,$8,$9*
0 Add four rect primitives between the rounded corners*
20,1,$1+$1,$2,$3,$4,$5,0*
20,1,$1+$1,$4,$5,$6,$7,0*
20,1,$1+$1,$6,$7,$8,$9,0*
20,1,$1+$1,$8,$9,$2,$3,0*%
G04 Aperture macros list end*
%TA.AperFunction,ComponentPad*%
%ADD10O,1.300000X3.200000*%
%TD*%
%TA.AperFunction,ComponentPad*%
%ADD11R,1.700000X1.700000*%
%TD*%
%TA.AperFunction,ComponentPad*%
%ADD12C,1.700000*%
%TD*%
%TA.AperFunction,ComponentPad*%
%ADD13C,1.600000*%
%TD*%
%TA.AperFunction,ComponentPad*%
%ADD14R,2.000000X2.000000*%
%TD*%
%TA.AperFunction,ComponentPad*%
%ADD15C,2.000000*%
%TD*%
%TA.AperFunction,ComponentPad*%
%ADD16RoundRect,0.170000X0.680000X0.680000X-0.680000X0.680000X-0.680000X-0.680000X0.680000X-0.680000X0*%
%TD*%
%TA.AperFunction,Conductor*%
%ADD17C,0.200000*%
%TD*%
G04 APERTURE END LIST*
D10*
%TO.P,J3,SH,Shield_SH*%
%TO.N,GND*%
X88950000Y-95400000D03*
X77250000Y-95400000D03*
%TD*%
D11*
%TO.P,J1,1,Pin_1_1*%
%TO.N,Net-(J1-Pin_1)*%
X72200000Y-55460000D03*
D12*
%TO.P,J1,2,Pin_2_2*%
%TO.N,Net-(J1-Pin_2)*%
X72200000Y-52920000D03*
%TO.P,J1,3,Pin_3_3*%
%TO.N,Net-(J1-Pin_3)*%
X72200000Y-50380000D03*
%TO.P,J1,4,Pin_4_4*%
%TO.N,Net-(J1-Pin_4)*%
X72200000Y-47840000D03*
%TO.P,J1,5,Pin_5_5*%
%TO.N,GND*%
X72200000Y-45300000D03*
%TO.P,J1,6,Pin_6_6*%
%TO.N,+5V*%
X72200000Y-42760000D03*
%TD*%
D11*
%TO.P,RV1,1,1_1*%
%TO.N,+3.3V*%
X72185000Y-70740000D03*
D12*
%TO.P,RV1,2,2_2*%
%TO.N,Potentio*%
X72185000Y-68200000D03*
%TO.P,RV1,3,3_3*%
%TO.N,GND*%
X72185000Y-65660000D03*
%TD*%
D13*
%TO.P,C1,1*%
%TO.N,Net-(U1-V3)*%
X82350000Y-51600000D03*
%TO.P,C1,2*%
%TO.N,GND*%
X84850000Y-51600000D03*
%TD*%
D14*
%TO.P,BZ1,1,+_1*%
%TO.N,Buzzer*%
X79800000Y-59720000D03*
D15*
%TO.P,BZ1,2,-_2*%
%TO.N,GND*%
X87400000Y-59720000D03*
%TD*%
D16*
%TO.P,U2,1,GND_1*%
%TO.N,GND*%
X87340000Y-74600000D03*
D12*
%TO.P,U2,2,VCC_2*%
%TO.N,+5V*%
X84800000Y-74600000D03*
%TO.P,U2,3,SCL_3*%
%TO.N,SCL*%
X82260000Y-74600000D03*
%TO.P,U2,4,SDA_4*%
%TO.N,SDA*%
X79720000Y-74600000D03*
%TD*%
D11*
%TO.P,J5,1,Pin_1_1*%
%TO.N,+5V*%
X72200000Y-87280000D03*
D12*
%TO.P,J5,2,Pin_2_2*%
%TO.N,GND*%
X72200000Y-84740000D03*
%TO.P,J5,3,Pin_3_3*%
%TO.N,SCL*%
X72200000Y-82200000D03*
%TO.P,J5,4,Pin_4_4*%
%TO.N,SDA*%
X72200000Y-79660000D03*
%TD*%
D11*
%TO.P,J6,1,Pin_1_1*%
%TO.N,+5V*%
X76000000Y-40620000D03*
D12*
%TO.P,J6,2,Pin_2_2*%
%TO.N,GND*%
X76000000Y-43160000D03*
%TO.P,J6,3,Pin_3_3*%
%TO.N,+3.3V*%
X76000000Y-45700000D03*
%TO.P,J6,4,Pin_4_4*%
%TO.N,Net-(J1-Pin_4)*%
X76000000Y-48240000D03*
%TO.P,J6,5,Pin_5_5*%
%TO.N,Net-(J1-Pin_3)*%
X76000000Y-50780000D03*
%TO.P,J6,6,Pin_6_6*%
%TO.N,Net-(J1-Pin_2)*%
X76000000Y-53320000D03*
%TO.P,J6,7,Pin_7_7*%
%TO.N,Net-(J1-Pin_1)*%
X76000000Y-55860000D03*
%TO.P,J6,8,Pin_8_8*%
%TO.N,Potentio*%
X76000000Y-58400000D03*
%TO.P,J6,9,Pin_9_9*%
%TO.N,Buzzer*%
X76000000Y-60940000D03*
%TD*%
D11*
%TO.P,J7,1,Pin_1_1*%
%TO.N,Net-(J7-Pin_1)*%
X91200000Y-40640000D03*
D12*
%TO.P,J7,2,Pin_2_2*%
%TO.N,Net-(J7-Pin_2)*%
X91200000Y-43180000D03*
%TO.P,J7,3,Pin_3_3*%
%TO.N,SDA*%
X91200000Y-45720000D03*
%TO.P,J7,4,Pin_4_4*%
%TO.N,SCL*%
X91200000Y-48260000D03*
%TO.P,J7,5,Pin_5_5*%
%TO.N,Net-(J7-Pin_5)*%
X91200000Y-50800000D03*
%TO.P,J7,6,Pin_6_6*%
%TO.N,Net-(J7-Pin_6)*%
X91200000Y-53340000D03*
%TO.P,J7,7,Pin_7_7*%
%TO.N,Net-(J7-Pin_7)*%
X91200000Y-55880000D03*
%TO.P,J7,8,Pin_8_8*%
%TO.N,Net-(J7-Pin_8)*%
X91200000Y-58420000D03*
%TO.P,J7,9,Pin_9_9*%
%TO.N,Net-(J7-Pin_9)*%
X91200000Y-60960000D03*
%TD*%
%TO.N,+5V*%
D17*
X77220000Y-39400000D02*
X76000000Y-40620000D01*
X93000000Y-66400000D02*
X93000000Y-39400000D01*
X83650000Y-76550000D02*
X83650000Y-75750000D01*
X93000000Y-39400000D02*
X77220000Y-39400000D01*
X81175000Y-78305000D02*
X81175000Y-76901472D01*
X81175000Y-76901472D02*
X81526472Y-76550000D01*
X83650000Y-75750000D02*
X84800000Y-74600000D01*
X72200000Y-87280000D02*
X81175000Y-78305000D01*
X81526472Y-76550000D02*
X83650000Y-76550000D01*
X84800000Y-74600000D02*
X93000000Y-66400000D01*
%TO.N,GND*%
X84850000Y-51600000D02*
X76410000Y-43160000D01*
X76410000Y-43160000D02*
X76000000Y-43160000D01*
X89075000Y-95275000D02*
X89075000Y-76335000D01*
X89075000Y-76335000D02*
X87340000Y-74600000D01*
X88950000Y-95400000D02*
X89075000Y-95275000D01*
%TO.N,Buzzer*%
X76000000Y-60940000D02*
X78580000Y-60940000D01*
X78580000Y-60940000D02*
X79800000Y-59720000D01*
%TO.N,SCL*%
X87517157Y-71317157D02*
X85542843Y-71317157D01*
X92600000Y-49660000D02*
X92600000Y-66234314D01*
X85542843Y-71317157D02*
X82260000Y-74600000D01*
X92600000Y-66234314D02*
X87517157Y-71317157D01*
X91200000Y-48260000D02*
X92600000Y-49660000D01*
%TO.N,SDA*%
X90050000Y-64270000D02*
X90050000Y-46870000D01*
X90050000Y-46870000D02*
X91200000Y-45720000D01*
X77260000Y-74600000D02*
X79720000Y-74600000D01*
X72200000Y-79660000D02*
X77260000Y-74600000D01*
X79720000Y-74600000D02*
X90050000Y-64270000D01*
%TD*%
M02*
