%TF.GenerationSoftware,KiCad,Pcbnew,10.0.1*%
%TF.CreationDate,2026-06-16T17:56:22+08:00*%
%TF.ProjectId,susGadget,73757347-6164-4676-9574-2e6b69636164,rev?*%
%TF.SameCoordinates,Original*%
%TF.FileFunction,Legend,Top*%
%TF.FilePolarity,Positive*%
%FSLAX46Y46*%
G04 Gerber Fmt 4.6, Leading zero omitted, Abs format (unit mm)*
G04 Created by KiCad (PCBNEW 10.0.1) date 2026-06-16 17:56:22*
%MOMM*%
%LPD*%
G01*
G04 APERTURE LIST*
%ADD10C,0.150000*%
%ADD11C,0.120000*%
%ADD12C,0.127000*%
%ADD13C,0.200000*%
G04 APERTURE END LIST*
D10*
X79409048Y-57253866D02*
X80170953Y-57253866D01*
X79790000Y-57634819D02*
X79790000Y-56872914D01*
%TO.C,J3*%
D11*
X76990000Y-97260000D02*
X76990000Y-97530000D01*
X78740000Y-91855000D02*
X78740000Y-93475000D01*
X78740000Y-93475000D02*
X77700000Y-93475000D01*
X87460000Y-91375000D02*
X87000000Y-91375000D01*
X87460000Y-91375000D02*
X87460000Y-93475000D01*
X88500000Y-93475000D02*
X87460000Y-93475000D01*
X89210000Y-97260000D02*
X89210000Y-97530000D01*
%TO.C,S1*%
D12*
X77175000Y-77200000D02*
X81455000Y-77200000D01*
X77175000Y-78130000D02*
X77175000Y-77200000D01*
X77175000Y-88670000D02*
X77175000Y-89600000D01*
X77175000Y-89600000D02*
X77955000Y-89600000D01*
X81795000Y-89600000D02*
X84955000Y-89600000D01*
X85295000Y-77200000D02*
X89575000Y-77200000D01*
X88795000Y-89600000D02*
X89575000Y-89600000D01*
X89575000Y-77200000D02*
X89575000Y-78130000D01*
X89575000Y-89600000D02*
X89575000Y-88670000D01*
D13*
X75575000Y-77675000D02*
G75*
G02*
X75375000Y-77675000I-100000J0D01*
G01*
X75375000Y-77675000D02*
G75*
G02*
X75575000Y-77675000I100000J0D01*
G01*
%TO.C,U1*%
D11*
X81540000Y-38305000D02*
X85660000Y-38305000D01*
X81540000Y-38360000D02*
X81540000Y-38305000D01*
X81540000Y-48425000D02*
X81540000Y-48370000D01*
X85660000Y-38305000D02*
X85660000Y-38360000D01*
X85660000Y-48370000D02*
X85660000Y-48425000D01*
X85660000Y-48425000D02*
X81540000Y-48425000D01*
X81000000Y-38355000D02*
X80760000Y-38025000D01*
X81240000Y-38025000D01*
X81000000Y-38355000D01*
G36*
X81000000Y-38355000D02*
G01*
X80760000Y-38025000D01*
X81240000Y-38025000D01*
X81000000Y-38355000D01*
G37*
%TO.C,J1*%
X62050000Y-42330000D02*
X68050000Y-42330000D01*
X62050000Y-43190000D02*
X62050000Y-42330000D01*
X62050000Y-44870000D02*
X68050000Y-44870000D01*
X62050000Y-45730000D02*
X62050000Y-44870000D01*
X62050000Y-47410000D02*
X68050000Y-47410000D01*
X62050000Y-48270000D02*
X62050000Y-47410000D01*
X62050000Y-49950000D02*
X68050000Y-49950000D01*
X62050000Y-50810000D02*
X62050000Y-49950000D01*
X62050000Y-52490000D02*
X68050000Y-52490000D01*
X62050000Y-53350000D02*
X62050000Y-52490000D01*
X68050000Y-43190000D02*
X62050000Y-43190000D01*
X68050000Y-45730000D02*
X62050000Y-45730000D01*
X68050000Y-48270000D02*
X62050000Y-48270000D01*
X68050000Y-50810000D02*
X62050000Y-50810000D01*
X68050000Y-53350000D02*
X62050000Y-53350000D01*
X70810000Y-44030000D02*
X68050000Y-44030000D01*
X70810000Y-46570000D02*
X68050000Y-46570000D01*
X70810000Y-49110000D02*
X68050000Y-49110000D01*
X70810000Y-51650000D02*
X68050000Y-51650000D01*
X70810000Y-54190000D02*
X68050000Y-54190000D01*
X71040000Y-55030000D02*
X70810000Y-55030000D01*
X71040000Y-55890000D02*
X70810000Y-55890000D01*
X71122642Y-42330000D02*
X70810000Y-42330000D01*
X71122642Y-43190000D02*
X70810000Y-43190000D01*
X71122642Y-44870000D02*
X70810000Y-44870000D01*
X71122642Y-45730000D02*
X70810000Y-45730000D01*
X71122642Y-47410000D02*
X70810000Y-47410000D01*
X71122642Y-48270000D02*
X70810000Y-48270000D01*
X71122642Y-49950000D02*
X70810000Y-49950000D01*
X71122642Y-50810000D02*
X70810000Y-50810000D01*
X71122642Y-52490000D02*
X70810000Y-52490000D01*
X71122642Y-53350000D02*
X70810000Y-53350000D01*
X73470000Y-55460000D02*
X73470000Y-56730000D01*
X73470000Y-56730000D02*
X72200000Y-56730000D01*
X62050000Y-55030000D02*
X68050000Y-55030000D01*
X68050000Y-55890000D01*
X62050000Y-55890000D01*
X62050000Y-55030000D01*
G36*
X62050000Y-55030000D02*
G01*
X68050000Y-55030000D01*
X68050000Y-55890000D01*
X62050000Y-55890000D01*
X62050000Y-55030000D01*
G37*
X68050000Y-41380000D02*
X70810000Y-41380000D01*
X70810000Y-56840000D01*
X68050000Y-56840000D01*
X68050000Y-41380000D01*
%TO.C,RV1*%
X62035000Y-65230000D02*
X68035000Y-65230000D01*
X62035000Y-66090000D02*
X62035000Y-65230000D01*
X62035000Y-67770000D02*
X68035000Y-67770000D01*
X62035000Y-68630000D02*
X62035000Y-67770000D01*
X68035000Y-66090000D02*
X62035000Y-66090000D01*
X68035000Y-68630000D02*
X62035000Y-68630000D01*
X70795000Y-66930000D02*
X68035000Y-66930000D01*
X70795000Y-69470000D02*
X68035000Y-69470000D01*
X71025000Y-70310000D02*
X70795000Y-70310000D01*
X71025000Y-71170000D02*
X70795000Y-71170000D01*
X71107642Y-65230000D02*
X70795000Y-65230000D01*
X71107642Y-66090000D02*
X70795000Y-66090000D01*
X71107642Y-67770000D02*
X70795000Y-67770000D01*
X71107642Y-68630000D02*
X70795000Y-68630000D01*
X73455000Y-70740000D02*
X73455000Y-72010000D01*
X73455000Y-72010000D02*
X72185000Y-72010000D01*
X62035000Y-70310000D02*
X68035000Y-70310000D01*
X68035000Y-71170000D01*
X62035000Y-71170000D01*
X62035000Y-70310000D01*
G36*
X62035000Y-70310000D02*
G01*
X68035000Y-70310000D01*
X68035000Y-71170000D01*
X62035000Y-71170000D01*
X62035000Y-70310000D01*
G37*
X68035000Y-64280000D02*
X70795000Y-64280000D01*
X70795000Y-72120000D01*
X68035000Y-72120000D01*
X68035000Y-64280000D01*
%TO.C,C1*%
X80980000Y-50230000D02*
X86220000Y-50230000D01*
X80980000Y-52970000D02*
X80980000Y-50230000D01*
X86220000Y-50230000D02*
X86220000Y-52970000D01*
X86220000Y-52970000D02*
X80980000Y-52970000D01*
%TO.C,BZ1*%
X89700000Y-59720000D02*
G75*
G02*
X77500000Y-59720000I-6100000J0D01*
G01*
X77500000Y-59720000D02*
G75*
G02*
X89700000Y-59720000I6100000J0D01*
G01*
%TO.C,U2*%
X87340000Y-73220000D02*
X88720000Y-73220000D01*
X88720000Y-74600000D02*
X88720000Y-73220000D01*
X77530000Y-38100000D02*
X89530000Y-38100000D01*
X89530000Y-76100000D01*
X77530000Y-76100000D01*
X77530000Y-38100000D01*
%TO.C,J5*%
X62050000Y-79230000D02*
X68050000Y-79230000D01*
X62050000Y-80090000D02*
X62050000Y-79230000D01*
X62050000Y-81770000D02*
X68050000Y-81770000D01*
X62050000Y-82630000D02*
X62050000Y-81770000D01*
X62050000Y-84310000D02*
X68050000Y-84310000D01*
X62050000Y-85170000D02*
X62050000Y-84310000D01*
X68050000Y-80090000D02*
X62050000Y-80090000D01*
X68050000Y-82630000D02*
X62050000Y-82630000D01*
X68050000Y-85170000D02*
X62050000Y-85170000D01*
X70810000Y-80930000D02*
X68050000Y-80930000D01*
X70810000Y-83470000D02*
X68050000Y-83470000D01*
X70810000Y-86010000D02*
X68050000Y-86010000D01*
X71040000Y-86850000D02*
X70810000Y-86850000D01*
X71040000Y-87710000D02*
X70810000Y-87710000D01*
X71122642Y-79230000D02*
X70810000Y-79230000D01*
X71122642Y-80090000D02*
X70810000Y-80090000D01*
X71122642Y-81770000D02*
X70810000Y-81770000D01*
X71122642Y-82630000D02*
X70810000Y-82630000D01*
X71122642Y-84310000D02*
X70810000Y-84310000D01*
X71122642Y-85170000D02*
X70810000Y-85170000D01*
X73470000Y-87280000D02*
X73470000Y-88550000D01*
X73470000Y-88550000D02*
X72200000Y-88550000D01*
X62050000Y-86850000D02*
X68050000Y-86850000D01*
X68050000Y-87710000D01*
X62050000Y-87710000D01*
X62050000Y-86850000D01*
G36*
X62050000Y-86850000D02*
G01*
X68050000Y-86850000D01*
X68050000Y-87710000D01*
X62050000Y-87710000D01*
X62050000Y-86850000D01*
G37*
X68050000Y-78280000D02*
X70810000Y-78280000D01*
X70810000Y-88660000D01*
X68050000Y-88660000D01*
X68050000Y-78280000D01*
%TD*%
M02*
