%TF.GenerationSoftware,KiCad,Pcbnew,10.0.1*%
%TF.CreationDate,2026-06-16T17:56:22+08:00*%
%TF.ProjectId,susGadget,73757347-6164-4676-9574-2e6b69636164,rev?*%
%TF.SameCoordinates,Original*%
%TF.FileFunction,Soldermask,Top*%
%TF.FilePolarity,Negative*%
%FSLAX46Y46*%
G04 Gerber Fmt 4.6, Leading zero omitted, Abs format (unit mm)*
G04 Created by KiCad (PCBNEW 10.0.1) date 2026-06-16 17:56:22*
%MOMM*%
%LPD*%
G01*
G04 APERTURE LIST*
G04 Aperture macros list*
%AMRoundRect*
0 Rectangle with rounded corners*
0 $1 Rounding radius*
0 $2 $3 $4 $5 $6 $7 $8 $9 X,Y pos of 4 corners*
0 Add a 4 corners polygon primitive as box body*
4,1,4,$2,$3,$4,$5,$6,$7,$8,$9,$2,$3,0*
0 Add four circle primitives for the rounded corners*
1,1,$1+$1,$2,$3*
1,1,$1+$1,$4,$5*
1,1,$1+$1,$6,$7*
1,1,$1+$1,$8,$9*
0 Add four rect primitives between the rounded corners*
20,1,$1+$1,$2,$3,$4,$5,0*
20,1,$1+$1,$4,$5,$6,$7,0*
20,1,$1+$1,$6,$7,$8,$9,0*
20,1,$1+$1,$8,$9,$2,$3,0*%
G04 Aperture macros list end*
%ADD10C,1.100000*%
%ADD11RoundRect,0.300000X-0.300000X0.700000X-0.300000X-0.700000X0.300000X-0.700000X0.300000X0.700000X0*%
%ADD12O,1.300000X3.200000*%
%ADD13C,1.600000*%
%ADD14RoundRect,0.102000X-1.000000X-0.950000X1.000000X-0.950000X1.000000X0.950000X-1.000000X0.950000X0*%
%ADD15RoundRect,0.150000X-0.825000X-0.150000X0.825000X-0.150000X0.825000X0.150000X-0.825000X0.150000X0*%
%ADD16R,1.700000X1.700000*%
%ADD17C,1.700000*%
%ADD18R,2.000000X2.000000*%
%ADD19C,2.000000*%
%ADD20RoundRect,0.170000X0.680000X0.680000X-0.680000X0.680000X-0.680000X-0.680000X0.680000X-0.680000X0*%
G04 APERTURE END LIST*
D10*
%TO.C,J3*%
X85350000Y-95400000D03*
X80850000Y-95400000D03*
D11*
X86600000Y-92800000D03*
X84100000Y-92800000D03*
X82100000Y-92800000D03*
X79600000Y-92800000D03*
D12*
X88950000Y-95400000D03*
X77250000Y-95400000D03*
%TD*%
D13*
%TO.C,S1*%
X80375000Y-86400000D03*
X86375000Y-80400000D03*
D14*
X75875000Y-79400000D03*
X75875000Y-83400000D03*
X75875000Y-87400000D03*
X90875000Y-79400000D03*
X90875000Y-83400000D03*
X90875000Y-87400000D03*
%TD*%
D15*
%TO.C,U1*%
X81125000Y-38920000D03*
X81125000Y-40190000D03*
X81125000Y-41460000D03*
X81125000Y-42730000D03*
X81125000Y-44000000D03*
X81125000Y-45270000D03*
X81125000Y-46540000D03*
X81125000Y-47810000D03*
X86075000Y-47810000D03*
X86075000Y-46540000D03*
X86075000Y-45270000D03*
X86075000Y-44000000D03*
X86075000Y-42730000D03*
X86075000Y-41460000D03*
X86075000Y-40190000D03*
X86075000Y-38920000D03*
%TD*%
D16*
%TO.C,J1*%
X72200000Y-55460000D03*
D17*
X72200000Y-52920000D03*
X72200000Y-50380000D03*
X72200000Y-47840000D03*
X72200000Y-45300000D03*
X72200000Y-42760000D03*
%TD*%
D16*
%TO.C,RV1*%
X72185000Y-70740000D03*
D17*
X72185000Y-68200000D03*
X72185000Y-65660000D03*
%TD*%
D13*
%TO.C,C1*%
X82350000Y-51600000D03*
X84850000Y-51600000D03*
%TD*%
D18*
%TO.C,BZ1*%
X79800000Y-59720000D03*
D19*
X87400000Y-59720000D03*
%TD*%
D20*
%TO.C,U2*%
X87340000Y-74600000D03*
D17*
X84800000Y-74600000D03*
X82260000Y-74600000D03*
X79720000Y-74600000D03*
%TD*%
D16*
%TO.C,J5*%
X72200000Y-87280000D03*
D17*
X72200000Y-84740000D03*
X72200000Y-82200000D03*
X72200000Y-79660000D03*
%TD*%
D16*
%TO.C,J6*%
X76000000Y-40620000D03*
D17*
X76000000Y-43160000D03*
X76000000Y-45700000D03*
X76000000Y-48240000D03*
X76000000Y-50780000D03*
X76000000Y-53320000D03*
X76000000Y-55860000D03*
X76000000Y-58400000D03*
X76000000Y-60940000D03*
%TD*%
D16*
%TO.C,J7*%
X91200000Y-40640000D03*
D17*
X91200000Y-43180000D03*
X91200000Y-45720000D03*
X91200000Y-48260000D03*
X91200000Y-50800000D03*
X91200000Y-53340000D03*
X91200000Y-55880000D03*
X91200000Y-58420000D03*
X91200000Y-60960000D03*
%TD*%
M02*
